<svg version="1.1" xmlns="http://www.w3.org/2000/svg" x="0px" y="0px" width="841.89px" height="595.28px" viewbox="0 0 841.89 595.28" enable-background="new 0 0 841.89 595.28">
<g>
	<path fill="#62516B" d="M651.444,226.748c-2.201-1.165-4.544-1.365-6.814-0.672c-1.141,0.272-2.272,0.695-3.392,1.216
		c-0.168,0.078-0.335,0.168-0.504,0.25c1.146-1.116,2.202-2.283,3.054-3.535c0.034-0.053,0.076-0.104,0.111-0.158
		c0.631-0.956,1.139-1.964,1.471-3.033c0.323-1.064,0.459-2.183,0.36-3.369c-0.141-0.518-0.303-0.867-0.303-0.867
		c-2.475-0.276-4.725,0.402-6.583,1.881c-0.961,0.673-1.856,1.483-2.705,2.379c-0.497,0.523-0.973,1.083-1.44,1.651
		c0.489-1.256,0.893-2.523,1.125-3.789c0.035-0.192,0.061-0.385,0.088-0.576c0.132-0.934,0.172-1.867,0.077-2.792
		c-0.118-1.104-0.427-2.188-0.986-3.241c-0.333-0.421-0.617-0.678-0.617-0.678c-2.385,0.716-4.189,2.221-5.321,4.31
		c-0.622,0.995-1.129,2.092-1.559,3.249c-1.292,3.468-1.892,7.474-2.772,10.898c-0.065,0.454-0.575,1.444-0.626,1.881l0.141,0.109
		c2.711,2.551,5.143,4.805,6.404,7.563c0.031-0.012,0.078-0.033,0.121-0.052c0.026-0.01,0.044-0.017,0.076-0.031
		c0.129-0.023,0.257-0.047,0.389-0.073c0.961-0.188,1.983-0.426,3.048-0.715c4.031-1.839,9.306-2.985,13.06-5.61
		c0.938-0.657,1.783-1.406,2.485-2.28c0.693-0.87,1.231-1.858,1.576-2.999C651.463,227.131,651.444,226.748,651.444,226.748z"></path>
	<path fill="#62516B" d="M641.336,259.459c-0.012-0.068-0.021-0.122-0.027-0.146l0.008-0.001l-0.014-0.017
		c-1.558-6.938-7.979-16.107-20.207-28.854c-15.325-15.974-55.528-37.121-60.172-39.537c-0.18,1.238-0.608,4.66-0.378,7.734
		c0.181,2.409,0.741,5.599,3.869,7.285c0.209,0.071,2.038,0.193,3.492,0.379c3.668,0.471,4.484,0.87,4.659,1.006l-0.369,0.406
		l-22.25-1.227l-0.146-0.04c-0.275-0.146-27.59-14.601-32.941-15.119c-0.11-0.01-0.211-0.014-0.299-0.013
		c-0.101,0.004-0.16,0.036-0.212,0.113c-0.901,1.327,2.021,9.385,4.848,17.174c0.759,2.09,1.543,4.252,2.307,6.416l0.014,0.048
		c1.825,9.155,3.014,17.217,3.696,25.087c-19.472-16.267-34.048-41.884-42.164-72.948c0.177-0.045,0.348-0.097,0.525-0.141
		c0.097-0.024,0.188-0.052,0.285-0.075c-0.046-0.019-0.092-0.039-0.136-0.057c0.248-0.593,0.497-1.191,0.738-1.816
		c1.335-4.994,3.445-10.526,4.29-15.873c0.281-1.782,0.422-3.544,0.346-5.258c0.056-3.47-1.164-6.683-3.688-9.307
		c0,0-0.547,0.124-1.273,0.421c-1.467,0.942-2.639,2.099-3.582,3.423c-0.784,1.108-1.402,2.324-1.904,3.608
		c-0.103,0.265-0.209,0.529-0.302,0.8c-0.611,1.778-1.007,3.681-1.287,5.635c-0.186-1.063-0.392-2.115-0.648-3.137
		c-0.438-1.75-0.997-3.425-1.738-4.974c-1.307-3.216-3.688-5.695-7.037-7.12c0,0-0.455,0.329-1.007,0.886
		c-0.98,1.441-1.606,2.964-1.958,4.551c-0.347,1.601-0.422,3.25-0.304,4.92c0.007,0.093,0.023,0.187,0.03,0.28
		c0.186,2.208,0.692,4.452,1.351,6.695c-0.155-0.225-0.303-0.458-0.461-0.679c-1.052-1.465-2.19-2.817-3.448-3.985
		c-2.396-2.508-5.524-3.938-9.163-4.03c0,0-0.302,0.472-0.611,1.195c-0.381,1.7-0.403,3.348-0.145,4.952
		c0.268,1.617,0.805,3.177,1.53,4.687c2.897,6.039,8.796,11.283,12.611,16.519c1.15,1.13,2.282,2.168,3.371,3.098
		c0.149,0.126,0.295,0.248,0.441,0.37c0.032,0.042,0.049,0.063,0.074,0.097c0.041,0.053,0.088,0.113,0.117,0.152
		c0.015-0.01,0.03-0.02,0.044-0.03c2.502,23.477,0.3,47.21-7.261,70.248c-14.832,45.193-47.805,80.374-90.884,102.489
		c-15.735-13.004-25.49-31.035-25.49-50.973c0-0.826,0.042-1.641,0.075-2.459c-0.38-7.201,0.5-14.785,2.85-22.574
		c8.469-28.07,14.332-53.357,12.736-76.743c-0.122-1.798-0.288-3.587-0.502-5.364c-0.415-3.231-0.522-7.218-1.853-10.533
		c-0.408-1.737-0.865-3.46-1.376-5.176c-5.621-18.871-17.651-36.573-39.03-53.643c-86.117-68.761-218.822,63.44-120.698,122.68
		c7.186-28.768,22.587-57.368,56.024-57.302c45.815,0.092,41.49,56.542,46.279,88.832c5.367,36.165,10.893,68.491,43.085,85.25
		c-15.493,5.48-31.908,9.463-48.956,11.844c-0.226-0.189-0.443-0.377-0.678-0.566c-4.086-2.627-8.434-6.102-12.976-8.393
		c-1.514-0.762-3.051-1.393-4.607-1.816c-3.088-1.045-6.314-0.875-9.387,0.633c0,0-0.046,0.523,0.012,1.26
		c0.422,1.582,1.122,2.963,2.036,4.188c0.925,1.23,2.053,2.295,3.313,3.238c1.417,1.057,3.005,1.957,4.674,2.768
		c-1.004-0.139-2.006-0.256-2.995-0.318c-1.691-0.111-3.352-0.092-4.95,0.129c-3.252,0.246-6.154,1.668-8.39,4.256
		c0,0,0.163,0.502,0.503,1.156c1.009,1.291,2.192,2.287,3.512,3.057c1.333,0.77,2.787,1.311,4.316,1.684
		c2.104,0.512,4.35,0.707,6.639,0.764c-0.246,0.074-0.498,0.139-0.741,0.217c-1.612,0.521-3.149,1.154-4.555,1.943
		c-2.933,1.428-5.108,3.816-6.235,7.047c0,0,0.336,0.406,0.895,0.889c1.412,0.83,2.881,1.322,4.391,1.551
		c1.524,0.223,3.074,0.191,4.633-0.025c6.237-0.861,12.621-4.637,18.401-6.551c0.838-0.439,1.628-0.885,2.393-1.328
		c18.338,19.285,44.378,32.91,74.493,39.486c31.333,8.227,57.774,18.15,77.859,29.309c-1.752,3.391-4.024,7.023-5.418,10.709
		c-0.491,1.297-0.871,2.598-1.082,3.898c-0.585,2.6-0.171,5.203,1.317,7.57c0,0,0.43-0.008,1.022-0.119
		c1.251-0.477,2.312-1.164,3.228-2.012c0.761-0.709,1.417-1.525,1.994-2.412c0.118-0.186,0.24-0.365,0.353-0.555
		c0.736-1.242,1.332-2.609,1.848-4.033c-0.026,0.826-0.036,1.65-0.004,2.457c0.056,1.385,0.215,2.73,0.53,4.01
		c0.48,2.623,1.883,4.857,4.175,6.451c0,0,0.395-0.174,0.896-0.508c0.962-0.93,1.67-1.977,2.183-3.115
		c0.51-1.148,0.823-2.375,0.996-3.648c0.01-0.072,0.012-0.145,0.021-0.217c0.206-1.686,0.176-3.453,0.031-5.24
		c0.082,0.191,0.156,0.391,0.239,0.582c0.563,1.264,1.207,2.459,1.969,3.533c1.41,2.26,3.537,3.822,6.258,4.461
		c0,0,0.3-0.309,0.646-0.805c0.552-1.217,0.826-2.451,0.882-3.697c0.053-1.258-0.108-2.514-0.417-3.762
		c-1.233-4.992-4.848-9.854-6.896-14.385c-0.341-0.51-0.683-1.002-1.021-1.475c6.071-15.971,20.691-30.209,41.107-41.201
		c-0.021-0.016-0.044-0.029-0.066-0.045c59.291-25.307,100.062-72.283,107.069-120.987c-14.58-0.3-32.274-4.999-49.504-14.004
		c-3.376-1.764-6.601-3.63-9.671-5.57c3.778,2.273,7.791,4.43,12.02,6.428c16.68,7.885,33.602,11.9,47.733,12.091
		c3.191-0.1,6.475-0.441,9.92-1.06c1.863-0.34,3.62-0.82,5.218-1.424c1.61-0.607,3.124-1.359,4.501-2.24
		c0.426-0.272,0.837-0.561,1.236-0.855c0.133-0.099,0.26-0.204,0.391-0.305c0.261-0.201,0.517-0.406,0.766-0.619
		c0.148-0.125,0.292-0.254,0.435-0.384c0.22-0.196,0.433-0.399,0.642-0.604c0.145-0.142,0.289-0.285,0.429-0.43
		c0.197-0.207,0.387-0.42,0.575-0.635c0.132-0.15,0.269-0.299,0.395-0.453c0.214-0.258,0.414-0.525,0.614-0.794
		c0.205-0.278,0.403-0.563,0.596-0.853c0.13-0.195,0.263-0.391,0.386-0.591c0.143-0.233,0.274-0.472,0.407-0.71
		c0.096-0.172,0.191-0.343,0.283-0.519c0.135-0.258,0.264-0.521,0.389-0.786c0.073-0.158,0.144-0.316,0.215-0.477
		c0.127-0.289,0.251-0.582,0.367-0.881c0.045-0.115,0.086-0.234,0.129-0.352c0.431-1.17,0.779-2.399,1.036-3.697
		c0.002-0.012,0.005-0.021,0.007-0.03c0.083-0.416,0.152-0.841,0.216-1.269c0.014-0.085,0.026-0.17,0.039-0.256
		c0.06-0.422,0.11-0.848,0.152-1.281c0.008-0.082,0.015-0.164,0.021-0.246c0.041-0.451,0.069-0.913,0.093-1.378
		c0.086-1.72,0.057-3.526-0.111-5.43C641.412,259.869,641.375,259.669,641.336,259.459z M569.043,339.588
		c-26.314,46.299-87.296,89.793-127.398,89.021c-37.317-3.34-35.536-53.457-4.826-103.809
		c23.768-43.952,62.585-67.001,95.507-59.605C568.035,270.02,588.418,299.689,569.043,339.588z M593.606,237.525
		c-1.715-1.462-4.01-2.731-6.68-3.553c-2.803-0.864-5.548-1.094-7.859-0.784c1.37-2.019,3.874-3.375,6.745-3.375
		c4.338,0,7.854,3.085,7.854,6.892C593.666,236.983,593.643,237.256,593.606,237.525z"></path>
	<path fill="#FFFFFF" d="M585.813,229.813c-2.871,0-5.375,1.356-6.745,3.375c2.312-0.31,5.057-0.08,7.859,0.784
		c2.67,0.822,4.965,2.09,6.68,3.553c0.036-0.269,0.06-0.542,0.06-0.82C593.666,232.898,590.15,229.813,585.813,229.813z"></path>
	<path fill="#62516B" d="M523.381,326.207l-12.89-7.07l-0.16-1.189c8.79-13.811,11.97-22.1,9.53-24.84
		c-3.2-2.369-10.04,3.19-20.511,16.709l-2.619,3.381l-25.98-9.68c-2.27,2.92-2.69,5.799-1.28,8.619l0.69,0.5l18.03,10.18l3.1,2.031
		l-2.45,2.709l-11.319,11.82c-17.9-9.43-27.65-13.1-29.25-11.039c-0.961,1.25,0.64,3.84,4.77,7.799l17.84,13.211
		c-8.34,10.141-11.43,15.99-9.29,17.58c4.48,4.74,11.7,0.689,21.641-12.15l8.85,6.83c0.18,0.301-1.82,3.16-6.01,8.57l-4.71,6.08
		l0.649,4.73c3.08,2.289,6.42,2.639,10,1.029c8.021-10.359,11.99-15.08,11.87-14.15c14.29,9.58,23.54,11.67,27.73,6.27
		c1.33-1.719,0.609-4.039-2.19-6.93l-16.83-10.35l13.71-15.73c18.23,10.49,28.83,13.811,31.83,9.939
		c2.99-3.879-5.149-10.549-24.43-20.059l5.96-10.471c7.28-12.34,8.43-20.34,3.479-24.02l-0.68-0.5
		c-0.81-0.59-2.37,0.021-4.689,1.851c-5.641,13.779-9.79,22.41-12.48,25.859C524.381,324.918,523.741,325.738,523.381,326.207z
		 M514.301,337.918l-10.859,14.02l-15.141-7.41c0.73,0.301,4.58-4.051,11.561-13.061c2.1-2.699,3.22-3.529,3.359-2.479l12.87,6.619
		L514.301,337.918z"></path>
</g>
</svg>